<?xml version="1.0" encoding="utf-8"?>
<!-- Generator: Adobe Illustrator 16.0.0, SVG Export Plug-In . SVG Version: 6.00 Build 0)  -->
<!DOCTYPE svg PUBLIC "-//W3C//DTD SVG 1.1//EN" "http://www.w3.org/Graphics/SVG/1.1/DTD/svg11.dtd">
<svg version="1.1" id="Layer_1" xmlns="http://www.w3.org/2000/svg" xmlns:xlink="http://www.w3.org/1999/xlink" x="0px" y="0px"
	 width="612px" height="162.614px" viewBox="0 627.393 612 162.614" enable-background="new 0 627.393 612 162.614"
	 xml:space="preserve">
<g>
	<g>
		<path fill="#04BBDE" d="M177.548,681.175c0-17.765-5.173-34.748-14.934-49.487c-1.952-2.636-5.173-4.295-8.394-4.295
			c-2.245,0-4.393,0.781-6.247,2.05c-4.685,3.416-5.759,10.054-2.342,14.446l0.195,0.195c7.125,11.029,10.932,23.914,10.932,37.091
			s-3.709,25.964-10.932,37.091l0,0c-1.366,1.659-3.807,1.952-5.466,0.781c-0.878-0.586-1.464-1.465-1.659-2.538
			c-0.195-1.074,0-2.05,0.781-2.929l0.195-0.195c6.051-9.761,9.272-20.79,9.272-32.21c0-11.322-3.221-22.548-9.175-32.211
			l-0.195-0.195c-1.952-2.635-5.173-4.295-8.395-4.295c-2.245,0-4.392,0.781-6.247,2.05c-2.245,1.66-3.709,4.1-4.1,6.833
			c-0.488,2.831,0.195,5.466,1.952,7.809c3.416,6.052,5.271,12.884,5.271,19.814c0,7.125-1.757,13.763-5.173,19.814v0.195
			c-1.171,1.659-3.709,2.05-5.466,0.78c-1.757-1.366-2.245-3.514-0.878-5.466l0.195-0.293c2.343-4.587,3.709-9.565,3.709-14.934
			c0-5.174-1.366-10.347-3.709-14.935c-1.659-2.928-4.88-4.88-8.297-4.88c-1.659,0-3.416,0.488-4.88,1.366
			c-2.635,1.465-3.807,5.563-3.709,12.104v93.801l0.878-0.195c44.021-5.173,77.208-42.264,77.5-86.676v-0.487H177.548
			L177.548,681.175z M170.911,681.857c-0.195,38.556-27.428,71.645-65.104,79.16v-85.992c0-0.293,0-0.586,0-0.879
			c0-1.659-0.195-5.563,0.878-6.052c0.293-0.194,0.586-0.292,0.878-0.292c1.074,0,2.05,0.78,3.124,2.05
			c1.367,1.952,2.635,7.125,2.635,11.225c0,4.002-0.878,7.711-2.538,11.029l-0.195,0.195c-3.124,5.271-2.05,11.225,2.538,14.642
			c1.757,1.366,4.002,2.05,6.247,2.05c3.221,0,6.54-1.659,8.395-4.295c4.294-7.126,6.54-15.324,6.54-23.621
			c0-8.395-2.245-16.496-6.344-23.621l-0.195-0.195c-0.586-0.879-0.878-1.952-0.781-2.929c0.195-1.073,0.781-1.951,1.464-2.537
			c1.757-1.367,4.1-0.879,5.466,0.78c5.271,8.59,8.004,18.448,8.004,28.502s-2.831,19.912-8.101,28.501
			c-3.417,4.588-2.343,11.03,2.342,14.642c1.757,1.366,4.002,2.05,6.247,2.05c3.221,0,6.54-1.659,8.394-4.295
			c7.809-12.299,12.104-26.257,12.104-40.897c0-14.642-4.1-28.696-12.006-40.8l-0.195-0.195c-0.585-0.879-0.878-1.952-0.781-2.929
			c0.098-0.976,0.781-1.952,1.659-2.537c1.66-1.367,4.295-0.879,5.466,0.78c8.882,13.567,13.567,29.38,13.567,45.681
			L170.911,681.857L170.911,681.857z"/>
		<path fill="#04BBDE" d="M0,681.175c0-17.765,5.173-34.748,14.934-49.487c1.952-2.636,5.173-4.295,8.394-4.295
			c2.245,0,4.393,0.781,6.247,2.05c4.685,3.416,5.759,10.054,2.342,14.446l-0.195,0.195c-7.125,11.029-10.737,23.914-10.737,37.091
			s3.709,25.964,10.737,37.091l0,0c1.366,1.659,3.709,1.952,5.466,0.781c0.878-0.586,1.464-1.465,1.659-2.538
			c0.195-1.074,0-2.05-0.781-2.929l-0.195-0.195c-6.051-9.761-9.272-20.79-9.272-32.21c0-11.322,3.221-22.548,9.175-32.211
			l0.195-0.195c1.952-2.635,5.173-4.295,8.395-4.295c2.245,0,4.392,0.781,6.247,2.05c2.245,1.66,3.709,4.1,4.1,6.833
			c0.488,2.831-0.195,5.466-1.952,7.809c-3.416,6.052-5.271,12.884-5.271,19.814c0,7.125,1.757,13.763,5.271,19.814v0.195
			c1.171,1.659,3.709,2.05,5.466,0.78c1.757-1.366,2.245-3.514,0.878-5.466l-0.195-0.293c-2.343-4.587-3.709-9.565-3.709-14.934
			c0-5.174,1.366-10.347,3.709-14.935c1.659-2.928,4.88-4.88,8.296-4.88c1.66,0,3.417,0.488,4.88,1.366
			c2.636,1.465,3.807,5.563,3.709,12.104v93.801l-0.878-0.195C33.382,763.458,0.098,726.27,0,681.955V681.175L0,681.175z
			 M6.54,681.857c0.195,38.556,27.428,71.645,65.3,79.16v-85.992c0-0.293,0-0.586,0-0.879c0-1.659,0.195-5.563-0.878-6.052
			c-0.293-0.194-0.586-0.292-0.878-0.292c-1.074,0-2.05,0.78-3.124,2.05c-1.367,1.952-2.636,7.125-2.636,11.225
			c0,4.002,0.879,7.711,2.538,11.029l0.195,0.195c3.123,5.271,2.05,11.225-2.538,14.642c-1.757,1.366-4.002,2.05-6.247,2.05
			c-3.221,0-6.54-1.659-8.395-4.295c-4.294-7.126-6.54-15.324-6.54-23.621c0-8.395,2.245-16.496,6.344-23.621l0.195-0.195
			c0.586-0.879,0.878-1.952,0.781-2.929c-0.195-1.073-0.781-1.951-1.464-2.537c-1.757-1.367-4.1-0.879-5.466,0.78
			c-5.271,8.59-8.101,18.448-8.101,28.502s2.831,19.912,8.101,28.501c3.417,4.588,2.343,11.03-2.342,14.642
			c-1.757,1.366-4.002,2.05-6.247,2.05c-3.221,0-6.54-1.659-8.394-4.295c-8.004-12.299-12.104-26.257-12.104-40.897
			c0-14.642,4.1-28.696,12.006-40.8l0.195-0.195c0.585-0.879,0.878-1.952,0.781-2.929c-0.293-1.073-0.781-1.952-1.659-2.537
			c-1.66-1.367-4.295-0.879-5.466,0.78c-9.175,13.763-13.86,29.478-13.86,45.778L6.54,681.857L6.54,681.857z"/>
	</g>
	<g>
		<path fill="#FFFFFF" d="M585.158,678.93h-3.026v-15.715h-5.271v-2.831h13.958v2.831h-5.271v15.715H585.158z M600.58,678.93
			l-5.076-14.153h-0.292l0.292,3.318v10.835h-3.025v-18.448h4.783l5.075,14.153l5.075-14.153H612v18.448h-3.318v-10.64l0.293-3.514
			h-0.293l-5.271,14.153H600.58z"/>
	</g>
	<polygon fill="#FFFFFF" points="424.691,737.982 393.847,658.529 376.57,658.529 415.711,759.456 403.022,790.007 420.396,790.007 
		475.057,658.529 457.683,658.529 	"/>
	<path fill="#FFFFFF" d="M572.664,708.896c0,32.503-18.74,53.488-47.828,53.488c-29.087,0-47.827-20.985-47.827-53.488
		c0-32.211,18.74-53.001,47.827-53.001C553.826,655.895,572.664,676.685,572.664,708.896z M548.945,681.565
		c-5.466-6.833-13.567-10.347-24.207-10.347c-10.443,0-18.643,3.416-24.206,10.347c-5.271,6.539-8.297,16.202-8.297,27.33
		c0,8.882,2.343,37.969,32.309,37.969c29.965,0,32.308-29.087,32.308-37.969C557.145,697.865,554.216,688.202,548.945,681.565z"/>
	<polygon fill="#FFFFFF" points="295.751,715.435 246.459,638.812 226.06,638.812 226.06,761.018 243.336,761.018 243.336,663.02 
		286.479,730.076 289.016,734.176 302.584,734.176 348.947,661.849 348.947,761.018 364.76,761.018 364.76,638.812 345.141,638.812 
			"/>
</g>
</svg>
