<?xml version="1.0" encoding="utf-8"?>
<!-- Generator: Adobe Illustrator 18.0.0, SVG Export Plug-In . SVG Version: 6.00 Build 0)  -->
<!DOCTYPE svg PUBLIC "-//W3C//DTD SVG 1.1//EN" "http://www.w3.org/Graphics/SVG/1.1/DTD/svg11.dtd">
<svg version="1.1" id="Layer_1" xmlns="http://www.w3.org/2000/svg" xmlns:xlink="http://www.w3.org/1999/xlink" x="0px" y="0px"
	 viewBox="0 312.7 627 166.6" enable-background="new 0 312.7 627 166.6" xml:space="preserve">
<g>
	<g>
		<path fill="#04BBDE" d="M181.9,367.8c0-18.2-5.3-35.6-15.3-50.7c-2-2.7-5.3-4.4-8.6-4.4c-2.3,0-4.5,0.8-6.4,2.1
			c-4.8,3.5-5.9,10.3-2.4,14.8l0.2,0.2c7.3,11.3,11.2,24.5,11.2,38s-3.8,26.6-11.2,38l0,0c-1.4,1.7-3.9,2-5.6,0.8
			c-0.9-0.6-1.5-1.5-1.7-2.6c-0.2-1.1,0-2.1,0.8-3l0.2-0.2c6.2-10,9.5-21.3,9.5-33c0-11.6-3.3-23.1-9.4-33l-0.2-0.2
			c-2-2.7-5.3-4.4-8.6-4.4c-2.3,0-4.5,0.8-6.4,2.1c-2.3,1.7-3.8,4.2-4.2,7c-0.5,2.9,0.2,5.6,2,8c3.5,6.2,5.4,13.2,5.4,20.3
			c0,7.3-1.8,14.1-5.3,20.3v0.2c-1.2,1.7-3.8,2.1-5.6,0.8c-1.8-1.4-2.3-3.6-0.9-5.6l0.2-0.3c2.4-4.7,3.8-9.8,3.8-15.3
			c0-5.3-1.4-10.6-3.8-15.3c-1.7-3-5-5-8.5-5c-1.7,0-3.5,0.5-5,1.4c-2.7,1.5-3.9,5.7-3.8,12.4v96.1l0.9-0.2
			c45.1-5.3,79.1-43.3,79.4-88.8v-0.5H181.9z M175.1,368.5c-0.2,39.5-28.1,73.4-66.7,81.1v-88.1c0-0.3,0-0.6,0-0.9
			c0-1.7-0.2-5.7,0.9-6.2c0.3-0.2,0.6-0.3,0.9-0.3c1.1,0,2.1,0.8,3.2,2.1c1.4,2,2.7,7.3,2.7,11.5c0,4.1-0.9,7.9-2.6,11.3l-0.2,0.2
			c-3.2,5.4-2.1,11.5,2.6,15c1.8,1.4,4.1,2.1,6.4,2.1c3.3,0,6.7-1.7,8.6-4.4c4.4-7.3,6.7-15.7,6.7-24.2c0-8.6-2.3-16.9-6.5-24.2
			l-0.2-0.2c-0.6-0.9-0.9-2-0.8-3c0.2-1.1,0.8-2,1.5-2.6c1.8-1.4,4.2-0.9,5.6,0.8c5.4,8.8,8.2,18.9,8.2,29.2
			c0,10.3-2.9,20.4-8.3,29.2c-3.5,4.7-2.4,11.3,2.4,15c1.8,1.4,4.1,2.1,6.4,2.1c3.3,0,6.7-1.7,8.6-4.4c8-12.6,12.4-26.9,12.4-41.9
			c0-15-4.2-29.4-12.3-41.8l-0.2-0.2c-0.6-0.9-0.9-2-0.8-3s0.8-2,1.7-2.6c1.7-1.4,4.4-0.9,5.6,0.8c9.1,13.9,13.9,30.1,13.9,46.8
			L175.1,368.5L175.1,368.5z"/>
		<path fill="#04BBDE" d="M0,367.8c0-18.2,5.3-35.6,15.3-50.7c2-2.7,5.3-4.4,8.6-4.4c2.3,0,4.5,0.8,6.4,2.1
			c4.8,3.5,5.9,10.3,2.4,14.8l-0.2,0.2c-7.3,11.3-11,24.5-11,38s3.8,26.6,11,38l0,0c1.4,1.7,3.8,2,5.6,0.8c0.9-0.6,1.5-1.5,1.7-2.6
			s0-2.1-0.8-3l-0.2-0.2c-6.2-10-9.5-21.3-9.5-33c0-11.6,3.3-23.1,9.4-33l0.2-0.2c2-2.7,5.3-4.4,8.6-4.4c2.3,0,4.5,0.8,6.4,2.1
			c2.3,1.7,3.8,4.2,4.2,7c0.5,2.9-0.2,5.6-2,8c-3.5,6.2-5.4,13.2-5.4,20.3c0,7.3,1.8,14.1,5.4,20.3v0.2c1.2,1.7,3.8,2.1,5.6,0.8
			c1.8-1.4,2.3-3.6,0.9-5.6l-0.2-0.3c-2.4-4.7-3.8-9.8-3.8-15.3c0-5.3,1.4-10.6,3.8-15.3c1.7-3,5-5,8.5-5c1.7,0,3.5,0.5,5,1.4
			c2.7,1.5,3.9,5.7,3.8,12.4v96.1l-0.9-0.2c-44.6-5-78.7-43.1-78.8-88.5V367.8L0,367.8z M6.7,368.5c0.2,39.5,28.1,73.4,66.9,81.1
			v-88.1c0-0.3,0-0.6,0-0.9c0-1.7,0.2-5.7-0.9-6.2c-0.3-0.2-0.6-0.3-0.9-0.3c-1.1,0-2.1,0.8-3.2,2.1c-1.4,2-2.7,7.3-2.7,11.5
			c0,4.1,0.9,7.9,2.6,11.3l0.2,0.2c3.2,5.4,2.1,11.5-2.6,15c-1.8,1.4-4.1,2.1-6.4,2.1c-3.3,0-6.7-1.7-8.6-4.4
			c-4.4-7.3-6.7-15.7-6.7-24.2c0-8.6,2.3-16.9,6.5-24.2l0.2-0.2c0.6-0.9,0.9-2,0.8-3c-0.2-1.1-0.8-2-1.5-2.6
			c-1.8-1.4-4.2-0.9-5.6,0.8c-5.4,8.8-8.3,18.9-8.3,29.2c0,10.3,2.9,20.4,8.3,29.2c3.5,4.7,2.4,11.3-2.4,15
			c-1.8,1.4-4.1,2.1-6.4,2.1c-3.3,0-6.7-1.7-8.6-4.4c-8.2-12.6-12.4-26.9-12.4-41.9c0-15,4.2-29.4,12.3-41.8l0.2-0.2
			c0.6-0.9,0.9-2,0.8-3c-0.3-1.1-0.8-2-1.7-2.6c-1.7-1.4-4.4-0.9-5.6,0.8C11.6,335,6.8,351.1,6.8,367.8L6.7,368.5L6.7,368.5z"/>
	</g>
	<g>
		<path fill="#0A1C26" d="M599.5,365.5h-3.1v-16.1H591v-2.9h14.3v2.9h-5.4v16.1H599.5z M615.3,365.5l-5.2-14.5h-0.3l0.3,3.4v11.1
			H607v-18.9h4.9l5.2,14.5l5.2-14.5h4.7v18.9h-3.4v-10.9l0.3-3.6h-0.3l-5.4,14.5H615.3z"/>
	</g>
	<polygon fill="#0A1C26" points="435.1,426 403.5,344.6 385.8,344.6 425.9,448 412.9,479.3 430.7,479.3 486.7,344.6 468.9,344.6 	
		"/>
	<path fill="#0A1C26" d="M586.7,396.2c0,33.3-19.2,54.8-49,54.8c-29.8,0-49-21.5-49-54.8c0-33,19.2-54.3,49-54.3
		C567.4,341.9,586.7,363.2,586.7,396.2z M562.4,368.2c-5.6-7-13.9-10.6-24.8-10.6c-10.7,0-19.1,3.5-24.8,10.6
		c-5.4,6.7-8.5,16.6-8.5,28c0,9.1,2.4,38.9,33.1,38.9s33.1-29.8,33.1-38.9C570.8,384.9,567.8,375,562.4,368.2z"/>
	<polygon fill="#0A1C26" points="303,402.9 252.5,324.4 231.6,324.4 231.6,449.6 249.3,449.6 249.3,349.2 293.5,417.9 296.1,422.1 
		310,422.1 357.5,348 357.5,449.6 373.7,449.6 373.7,324.4 353.6,324.4 	"/>
</g>
</svg>
